<svg xmlns="http://www.w3.org/2000/svg" width="25.443" height="20.664" viewBox="0 0 25.443 20.664">
  <path id="Icon_awesome-twitter" data-name="Icon awesome-twitter" d="M22.827,8.531c.016.226.016.452.016.678A14.735,14.735,0,0,1,8.007,24.045,14.736,14.736,0,0,1,0,21.7a10.787,10.787,0,0,0,1.259.065,10.443,10.443,0,0,0,6.474-2.228,5.224,5.224,0,0,1-4.875-3.616,6.576,6.576,0,0,0,.985.081,5.515,5.515,0,0,0,1.372-.178A5.215,5.215,0,0,1,1.033,10.71v-.065a5.252,5.252,0,0,0,2.357.662A5.222,5.222,0,0,1,1.776,4.333,14.822,14.822,0,0,0,12.528,9.79,5.886,5.886,0,0,1,12.4,8.6a5.219,5.219,0,0,1,9.024-3.568,10.266,10.266,0,0,0,3.309-1.259A5.2,5.2,0,0,1,22.44,6.642a10.454,10.454,0,0,0,3-.807,11.209,11.209,0,0,1-2.615,2.7Z" transform="translate(0 -3.381)" fill="#fff"/>
</svg>
