<svg xmlns="http://www.w3.org/2000/svg" width="27.139" height="19.082" viewBox="0 0 27.139 19.082">
  <path id="Icon_awesome-youtube" data-name="Icon awesome-youtube" d="M27.622,7.486a3.41,3.41,0,0,0-2.4-2.415c-2.116-.571-10.6-.571-10.6-.571s-8.487,0-10.6.571a3.41,3.41,0,0,0-2.4,2.415A35.772,35.772,0,0,0,1.05,14.06a35.772,35.772,0,0,0,.567,6.575,3.359,3.359,0,0,0,2.4,2.376c2.116.571,10.6.571,10.6.571s8.487,0,10.6-.571a3.359,3.359,0,0,0,2.4-2.376,35.772,35.772,0,0,0,.567-6.575,35.772,35.772,0,0,0-.567-6.575ZM11.844,18.1v-8.07l7.093,4.035L11.844,18.1Z" transform="translate(-1.05 -4.5)" fill="#fff"/>
</svg>
