<svg xmlns="http://www.w3.org/2000/svg" width="166.931" height="40" viewBox="0 0 166.931 40">
  <g id="logoipsum-logo-55" transform="translate(-0.317 -0.923)">
    <path id="Path_1" data-name="Path 1" d="M49.278,28.952H61.229v-3.6h-7.7V11.792H49.278Z" fill="#fff"/>
    <path id="Path_2" data-name="Path 2" d="M68.311,26.552c-1.7,0-2.592-1.488-2.592-3.72s.888-3.744,2.592-3.744,2.616,1.512,2.616,3.744S70.015,26.552,68.311,26.552Zm.024,2.784a6.263,6.263,0,0,0,6.552-6.5,6.564,6.564,0,0,0-13.128,0A6.3,6.3,0,0,0,68.335,29.336Z" fill="#fff"/>
    <path id="Path_3" data-name="Path 3" d="M81.741,33.2a6.715,6.715,0,0,0,4.512-1.368,5.269,5.269,0,0,0,1.632-4.08V16.664H84.141v1.32h-.048a3.942,3.942,0,0,0-3.456-1.68c-3.048,0-5.16,2.544-5.16,6.144,0,3.768,2.568,5.832,5.328,5.832a3.918,3.918,0,0,0,3.144-1.416h.1v1.224a2.075,2.075,0,0,1-2.352,2.352c-1.3,0-1.944-.552-2.16-1.2H75.741C76.125,31.808,78.357,33.2,81.741,33.2Zm-.024-7.824c-1.464,0-2.424-1.2-2.424-3.048,0-1.872.96-3.072,2.424-3.072,1.632,0,2.5,1.392,2.5,3.048C84.213,24.032,83.421,25.376,81.717,25.376Z" fill="#fff"/>
    <path id="Path_4" data-name="Path 4" d="M95.584,26.552c-1.7,0-2.592-1.488-2.592-3.72s.888-3.744,2.592-3.744S98.2,20.6,98.2,22.832,97.287,26.552,95.584,26.552Zm.024,2.784a6.262,6.262,0,0,0,6.551-6.5,6.564,6.564,0,0,0-13.127,0A6.3,6.3,0,0,0,95.607,29.336Z" fill="#fff"/>
    <path id="Path_5" data-name="Path 5" d="M103.3,28.952h3.912V16.664H103.3Zm0-13.992h3.912V11.792H103.3Z" fill="#fff"/>
    <path id="Path_6" data-name="Path 6" d="M108.911,33.008h3.912V27.68h.048a4.09,4.09,0,0,0,3.48,1.656c3.216,0,5.352-2.544,5.352-6.528,0-3.7-1.992-6.5-5.256-6.5a4.468,4.468,0,0,0-3.72,1.848h-.072V16.664h-3.744Zm6.432-6.7c-1.68,0-2.64-1.368-2.64-3.36s.864-3.5,2.568-3.5c1.68,0,2.472,1.392,2.472,3.5C117.743,25.04,116.831,26.312,115.343,26.312Z" fill="#fff"/>
    <path id="Path_7" data-name="Path 7" d="M128.072,29.336c3.216,0,5.592-1.392,5.592-4.08,0-3.144-2.544-3.7-4.7-4.056-1.56-.288-2.952-.408-2.952-1.272,0-.768.744-1.128,1.7-1.128,1.08,0,1.824.336,1.968,1.44h3.6c-.192-2.424-2.064-3.936-5.544-3.936-2.9,0-5.3,1.344-5.3,3.936,0,2.88,2.28,3.456,4.416,3.816,1.632.288,3.12.408,3.12,1.512,0,.792-.744,1.224-1.92,1.224a1.987,1.987,0,0,1-2.256-1.824h-3.7C122.216,27.68,124.472,29.336,128.072,29.336Z" fill="#fff"/>
    <path id="Path_8" data-name="Path 8" d="M138.978,29.312a4.2,4.2,0,0,0,3.672-1.872h.072v1.512h3.744V16.664h-3.912v6.864A2.186,2.186,0,0,1,140.394,26c-1.248,0-1.848-.744-1.848-2.088V16.664h-3.888v8.064C134.658,27.464,136.146,29.312,138.978,29.312Z" fill="#fff"/>
    <path id="Path_9" data-name="Path 9" d="M148.168,28.952h3.912V22.064c0-1.464.72-2.5,1.944-2.5,1.176,0,1.728.768,1.728,2.088v7.3h3.912V22.064c0-1.464.7-2.5,1.944-2.5,1.176,0,1.728.768,1.728,2.088v7.3h3.912V20.96c0-2.76-1.392-4.656-4.176-4.656a4.371,4.371,0,0,0-3.864,2.16h-.048A3.68,3.68,0,0,0,155.7,16.3a4.1,4.1,0,0,0-3.72,2.112h-.072V16.664h-3.744Z" fill="#fff"/>
    <path id="Path_10" data-name="Path 10" d="M25.41,1.977,21.477.923l-3.314,12.37L15.17,2.125,11.237,3.179,14.47,15.245,6.417,7.192,3.538,10.071,12.371,18.9l-11-2.947L.317,19.89l12.019,3.22A8.144,8.144,0,1,1,28.2,23.1l10.923,2.927,1.054-3.933L28.115,18.859l11-2.948-1.054-3.933L26,15.212l8.053-8.053L31.169,4.28l-8.71,8.71Z" fill="#cc9601"/>
    <path id="Path_11" data-name="Path 11" d="M28.194,23.144a8.127,8.127,0,0,1-2.026,3.732l7.913,7.913,2.879-2.879Z" fill="#cc9601"/>
    <path id="Path_12" data-name="Path 12" d="M26.088,26.96a8.137,8.137,0,0,1-3.639,2.151l2.879,10.746L29.262,38.8Z" fill="#cc9601"/>
    <path id="Path_13" data-name="Path 13" d="M22.3,29.15a8.2,8.2,0,0,1-4.206-.037L15.215,39.869l3.933,1.054Z" fill="#cc9601"/>
    <path id="Path_14" data-name="Path 14" d="M17.958,29.074a8.142,8.142,0,0,1-3.575-2.183L6.451,34.823,9.33,37.7Z" fill="#cc9601"/>
    <path id="Path_15" data-name="Path 15" d="M14.317,26.82a8.125,8.125,0,0,1-1.975-3.686L1.383,26.07,2.437,30Z" fill="#cc9601"/>
  </g>
</svg>
